# xmcd CD database file
#
# Track frame offsets:
#	150
#	12998
#	29528
#	48448
#	62810
#	76353
#	92405
#	107150
#	120703
#	135183
#	146090
#
# Disc length: 2187 seconds
#
# Revision: 2
# Processed by: cddbd v1.5.2PL0 Copyright (c) Steve Scherf et al.
# Submitted via: CDex 1.60beta1
#
DISCID=8e08890b
DTITLE=Randy Travis - OLD 8 x 10
DYEAR=1988
DGENRE=Country
TTITLE0=Honky Tonk Moon
TTITLE1=Deeper Than The Holler
TTITLE2=It's Out Of My Hands
TTITLE3=Is It Still Over
TTITLE4=Old 8x10
TTITLE5=Forever and Ever, Amen
TTITLE6=Written In Stone
TTITLE7=The Blues In Black and White
TTITLE8=Here In My Heart
TTITLE9=We Ain't Out Of Love Yet
TTITLE10=Promises
EXTD=YEAR: 1988
EXTT0=
EXTT1=
EXTT2=
EXTT3=
EXTT4=
EXTT5=
EXTT6=
EXTT7=
EXTT8=
EXTT9=
EXTT10=
PLAYORDER=
